<svg xmlns="http://www.w3.org/2000/svg" xmlns:xlink="http://www.w3.org/1999/xlink" fill="none" version="1.1" width="168" height="40" viewBox="0 0 168 40"><defs><clipPath id="master_svg0_252_0177"><rect x="0" y="0" width="40" height="40" rx="0"/></clipPath></defs><g><g><path d="M53.536,7.01613C52.06,8.63809,49.522,10.11606,47.092,10.98119C47.632,11.3955,48.46,12.2966,48.856,12.7652C51.196,11.684,53.968,9.89978,55.732,7.98925L53.536,7.01613ZM40.918,13.486L40.918,15.646L44.014,15.646L44.014,20.2411C44.014,21.0159,43.528,21.4122,43.132,21.6105C43.438,22.0247,43.834,22.9259,43.96,23.4484C44.518,23.1062,45.382,22.8359,50.35,21.6285C50.242000000000004,21.1239,50.152,20.1871,50.152,19.5382L46.282,20.3851L46.282,15.646L48.532,15.646C49.972,19.3219,52.24,21.8088,56.019999999999996,23.0339C56.344,22.4033,57.028,21.4482,57.532,20.9619C54.256,20.1328,52.024,18.2588,50.782,15.646L57.1,15.646L57.1,13.486L46.282,13.486L46.282,6.76384L44.014,6.76384L44.014,13.486L40.918,13.486ZM59.007999999999996,8.86C59.998000000000005,9.634,61.456,10.732,62.14,11.398L63.58,9.796C62.824,9.166,61.348,8.14,60.376000000000005,7.45459L59.007999999999996,8.86ZM64.894,7.726L64.894,9.634L73.876,9.634L73.876,7.726L64.894,7.726ZM62.932,12.874L58.666,12.874L58.666,14.854L60.826,14.854L60.826,19.93C60.088,20.308,59.260000000000005,20.938,58.504000000000005,21.694L59.908,23.6414C60.682,22.558,61.546,21.442,62.104,21.442C62.5,21.442,63.094,21.982,63.814,22.432C65.056,23.134,66.532,23.35,68.764,23.35C70.69,23.35,73.606,23.26,74.97399999999999,23.152C75.00999999999999,22.576,75.352,21.532,75.586,20.938C73.714,21.208,70.708,21.37,68.836,21.37C66.874,21.37,65.27199999999999,21.28,64.102,20.56C63.598,20.272,63.238,20.02,62.932,19.822L62.932,12.874ZM63.706,11.722L63.706,13.648L66.334,13.648C66.172,16.131999999999998,65.72200000000001,17.788,63.076,18.796C63.544,19.192,64.12,20.002,64.354,20.542C67.576,19.192,68.26,16.924,68.476,13.648L69.826,13.648L69.826,17.716C69.826,19.57,70.20400000000001,20.182,71.86,20.182C72.184,20.182,72.922,20.182,73.24600000000001,20.182C74.56,20.182,75.064,19.516,75.244,17.068C74.70400000000001,16.924,73.84,16.582,73.462,16.258C73.408,18.022,73.336,18.274,73.012,18.274C72.868,18.274,72.346,18.274,72.22,18.274C71.914,18.274,71.86,18.22,71.86,17.698L71.86,13.648L75.02799999999999,13.648L75.02799999999999,11.722L63.706,11.722ZM86.24199999999999,6.69297C85.918,9.454,85.23400000000001,12.1,84.02799999999999,13.738C84.49600000000001,14.008,85.396,14.638,85.756,14.962C86.44,13.972,86.99799999999999,12.676,87.44800000000001,11.2L91.156,11.2C90.958,12.334,90.72399999999999,13.468,90.52600000000001,14.26L92.25399999999999,14.674C92.668,13.36,93.118,11.344,93.46000000000001,9.544L92.02000000000001,9.202L91.696,9.274L87.916,9.274C88.078,8.53403,88.20400000000001,7.75778,88.312,6.98153L86.24199999999999,6.69297ZM87.61,12.838L87.61,13.684C87.61,15.97,87.304,19.5559,83.812,22.187C84.316,22.5113,85.072,23.1962,85.414,23.6464C87.124,22.313,88.15,20.7453,88.762,19.1957C89.518,21.1236,90.616,22.6553,92.23599999999999,23.6104C92.524,23.0519,93.19,22.223,93.658,21.7905C91.444,20.7273,90.202,18.3125,89.59,15.52C89.644,14.872,89.662,14.278,89.662,13.738L89.662,12.838L87.61,12.838ZM77.494,16.420299999999997C77.656,16.2583,78.358,16.15,78.988,16.15L80.69800000000001,16.15L80.69800000000001,18.0783C79.096,18.2945,77.602,18.4928,76.468,18.6188L76.918,20.7993L80.69800000000001,20.1868L80.69800000000001,23.5744L82.624,23.5744L82.624,19.8622L84.694,19.5019L84.586,17.5377L82.624,17.808L82.624,16.15L84.406,16.15L84.424,14.206L82.624,14.206L82.624,11.704L80.69800000000001,11.704L80.69800000000001,14.206L79.47399999999999,14.206C79.94200000000001,13.144,80.41,11.956,80.842,10.696L84.586,10.696L84.586,8.661999999999999L81.49000000000001,8.661999999999999L81.886,7.14466L79.798,6.72925C79.672,7.3795,79.52799999999999,8.02975,79.366,8.661999999999999L76.72,8.661999999999999L76.72,10.696L78.77199999999999,10.696C78.394,11.866,78.05199999999999,12.802,77.872,13.18C77.512,13.972,77.22399999999999,14.458,76.828,14.584C77.062,15.088,77.386,16.024,77.494,16.420299999999997ZM99.688,15.43L99.688,17.536L104.566,17.536L104.566,23.6104L106.744,23.6104L106.744,17.536L111.388,17.536L111.388,15.43L106.744,15.43L106.744,12.316L110.524,12.316L110.524,10.192L106.744,10.192L106.744,6.92697L104.566,6.92697L104.566,10.192L103.09,10.192C103.27000000000001,9.50659,103.45,8.82119,103.594,8.1175L101.506,7.70266C101.11,9.90344,100.354,12.208,99.382,13.63C99.904,13.846,100.822,14.35,101.25399999999999,14.656C101.65,14.008,102.02799999999999,13.198,102.37,12.316L104.566,12.316L104.566,15.43L99.688,15.43ZM98.356,6.76441C97.456,9.34431,95.926,11.92,94.324,13.54C94.702,14.08,95.29599999999999,15.25,95.494,15.79C95.854,15.394,96.214,14.962,96.574,14.494L96.574,23.5924L98.626,23.5924L98.626,11.29C99.31,10.02972,99.922,8.71291,100.408,7.41409L98.356,6.76441ZM112.81,20.182L112.81,22.36L129.262,22.36L129.262,20.182L122.17,20.182L122.17,10.84L128.25400000000002,10.84L128.25400000000002,8.572L113.8,8.572L113.8,10.84L119.704,10.84L119.704,20.182L112.81,20.182ZM139.288,6.87297C138.45999999999998,9.47172,137.038,12.082,135.436,13.702C135.904,14.044,136.75,14.818,137.09199999999998,15.214C137.92000000000002,14.278,138.73000000000002,13.054,139.46800000000002,11.704L140.13400000000001,11.704L140.13400000000001,23.6102L142.36599999999999,23.6102L142.36599999999999,19.606L147.28,19.606L147.28,17.59L142.36599999999999,17.59L142.36599999999999,15.556L147.046,15.556L147.046,13.594L142.36599999999999,13.594L142.36599999999999,11.704L147.49599999999998,11.704L147.49599999999998,9.652L140.476,9.652C140.8,8.91231,141.106,8.154340000000001,141.358,7.41438L139.288,6.87297ZM134.518,6.76469C133.6,9.34544,132.034,11.92,130.39600000000002,13.54C130.774,14.08,131.386,15.322,131.584,15.844C131.962,15.448,132.34,15.016,132.7,14.548L132.7,23.5919L134.878,23.5919L134.878,11.2C135.54399999999998,9.976,136.138,8.69575,136.606,7.43238L134.518,6.76469ZM150.628,17.824L150.628,19.678L155.86599999999999,19.678L155.86599999999999,21.226L149.04399999999998,21.226L149.04399999999998,23.116L165.064,23.116L165.064,21.226L158.07999999999998,21.226L158.07999999999998,19.678L163.624,19.678L163.624,17.824L158.07999999999998,17.824L158.07999999999998,16.456L155.86599999999999,16.456L155.86599999999999,17.824L150.628,17.824ZM155.56,7.05522C155.72199999999998,7.38063,155.88400000000001,7.76031,156.02800000000002,8.14L149.07999999999998,8.14L149.07999999999998,11.614L151.096,11.614L151.096,13.054L153.76,13.054C153.04000000000002,13.702,152.392,14.206,152.086,14.404C151.6,14.764,151.22199999999998,14.98,150.808,15.052C151.024,15.574,151.32999999999998,16.528,151.438,16.906C152.14,16.636,153.13,16.564,161.212,15.916C161.608,16.33,161.95,16.726,162.184,17.05L163.876,15.898C163.20999999999998,15.07,161.95,13.936,160.834,13.054L162.976,13.054L162.976,11.614L164.902,11.614L164.902,8.14L158.458,8.14C158.26,7.59775,157.954,6.96494,157.648,6.44041L155.56,7.05522ZM158.728,13.648L159.68200000000002,14.458L154.40800000000002,14.8C155.14600000000002,14.26,155.88400000000001,13.666,156.53199999999998,13.054L159.664,13.054L158.728,13.648ZM151.204,11.218L151.204,10.102L162.70600000000002,10.102L162.70600000000002,11.218L151.204,11.218ZM43.136,36.112C43.912,36.112,44.544,35.808,45.032,35.24L44.4,34.504C44.088,34.848,43.696,35.088,43.184,35.088C42.248,35.088,41.648,34.312,41.648,33.024C41.648,31.752,42.312,30.984,43.208,30.984C43.656,30.984,44,31.192,44.304,31.48L44.92,30.728C44.536,30.328,43.944,29.968,43.184,29.968C41.688,29.968,40.432,31.112,40.432,33.064C40.432,35.04,41.648,36.112,43.136,36.112ZM45.976,36L47.16,36L47.16,33.44L49.4,33.44L49.4,36L50.576,36L50.576,30.072L49.4,30.072L49.4,32.416L47.16,32.416L47.16,30.072L45.976,30.072L45.976,36ZM51.272,36L52.472,36L52.888,34.48L54.8,34.48L55.216,36L56.464,36L54.568,30.072L53.168,30.072L51.272,36ZM53.144,33.56L53.32,32.912C53.496,32.296,53.664,31.624,53.824,30.976L53.856,30.976C54.032,31.608,54.192,32.296,54.376,32.912L54.552,33.56L53.144,33.56ZM57.16,36L58.288,36L58.288,33.624C58.288,32.944,58.184,32.2,58.135999999999996,31.56L58.176,31.56L58.775999999999996,32.832L60.480000000000004,36L61.688,36L61.688,30.072L60.568,30.072L60.568,32.44C60.568,33.112,60.664,33.896,60.728,34.512L60.688,34.512L60.088,33.232L58.367999999999995,30.072L57.16,30.072L57.16,36ZM65.696,36.112C66.512,36.112,67.21600000000001,35.8,67.624,35.4L67.624,32.728L65.512,32.728L65.512,33.696L66.56,33.696L66.56,34.864C66.4,35.008,66.104,35.088,65.824,35.088C64.656,35.088,64.072,34.312,64.072,33.024C64.072,31.752,64.744,30.984,65.736,30.984C66.264,30.984,66.6,31.2,66.896,31.48L67.52799999999999,30.728C67.144,30.336,66.55199999999999,29.968,65.696,29.968C64.12,29.968,62.856,31.112,62.856,33.064C62.856,35.04,64.088,36.112,65.696,36.112ZM69.896,36L71.072,36L71.072,33.832L72.856,30.072L71.624,30.072L71.032,31.52C70.856,31.96,70.688,32.376000000000005,70.504,32.832L70.47200000000001,32.832C70.288,32.376000000000005,70.128,31.96,69.96000000000001,31.52L69.368,30.072L68.112,30.072L69.896,33.832L69.896,36ZM75.712,36.112C77.152,36.112,77.99199999999999,35.296,77.99199999999999,33.336L77.99199999999999,30.072L76.856,30.072L76.856,33.44C76.856,34.672,76.4,35.088,75.712,35.088C75.01599999999999,35.088,74.584,34.672,74.584,33.44L74.584,30.072L73.408,30.072L73.408,33.336C73.408,35.296,74.256,36.112,75.712,36.112ZM78.536,36L79.73599999999999,36L80.152,34.48L82.064,34.48L82.47999999999999,36L83.72800000000001,36L81.832,30.072L80.432,30.072L78.536,36ZM80.408,33.56L80.584,32.912C80.75999999999999,32.296,80.928,31.624,81.088,30.976L81.12,30.976C81.29599999999999,31.608,81.456,32.296,81.64,32.912L81.816,33.56L80.408,33.56ZM84.424,36L85.55199999999999,36L85.55199999999999,33.624C85.55199999999999,32.944,85.44800000000001,32.2,85.4,31.56L85.44,31.56L86.03999999999999,32.832L87.744,36L88.952,36L88.952,30.072L87.832,30.072L87.832,32.44C87.832,33.112,87.928,33.896,87.99199999999999,34.512L87.952,34.512L87.352,33.232L85.632,30.072L84.424,30.072L84.424,36ZM94,36.112C95.368,36.112,96.176,35.288,96.176,34.32C96.176,33.464,95.70400000000001,33,94.98400000000001,32.704L94.208,32.391999999999996C93.70400000000001,32.184,93.288,32.032,93.288,31.608C93.288,31.216,93.608,30.984,94.128,30.984C94.624,30.984,95.01599999999999,31.168,95.392,31.472L95.99199999999999,30.736C95.512,30.248,94.824,29.968,94.128,29.968C92.936,29.968,92.08,30.72,92.08,31.68C92.08,32.544,92.688,33.024,93.288,33.264L94.072,33.608C94.6,33.832,94.968,33.968,94.968,34.408C94.968,34.824,94.64,35.088,94.024,35.088C93.50399999999999,35.088,92.936,34.824,92.52000000000001,34.432L91.84,35.248C92.416,35.808,93.208,36.112,94,36.112ZM99.576,36.112C101.144,36.112,102.22399999999999,34.936,102.22399999999999,33.008C102.22399999999999,31.088,101.144,29.968,99.576,29.968C98.00800000000001,29.968,96.928,31.088,96.928,33.008C96.928,34.936,98.00800000000001,36.112,99.576,36.112ZM99.576,35.088C98.696,35.088,98.144,34.272,98.144,33.008C98.144,31.744,98.696,30.984,99.576,30.984C100.456,30.984,101.01599999999999,31.744,101.01599999999999,33.008C101.01599999999999,34.272,100.456,35.088,99.576,35.088ZM103.384,36L104.568,36L104.568,33.6L106.672,33.6L106.672,32.608000000000004L104.568,32.608000000000004L104.568,31.064L107.032,31.064L107.032,30.072L103.384,30.072L103.384,36ZM109.24,36L110.424,36L110.424,31.064L112.096,31.064L112.096,30.072L107.576,30.072L107.576,31.064L109.24,31.064L109.24,36ZM113.624,36L115.072,36L115.72,33.064C115.808,32.608000000000004,115.896,32.152,115.984,31.704L116.016,31.704C116.08,32.152,116.168,32.608000000000004,116.264,33.064L116.928,36L118.4,36L119.496,30.072L118.376,30.072L117.904,32.968C117.816,33.584,117.728,34.216,117.64,34.856L117.6,34.856C117.472,34.216,117.36,33.576,117.224,32.968L116.536,30.072L115.52,30.072L114.84,32.968C114.712,33.584,114.584,34.216,114.464,34.856L114.432,34.856C114.344,34.216,114.248,33.592,114.152,32.968L113.696,30.072L112.488,30.072L113.624,36ZM119.624,36L120.824,36L121.24,34.48L123.152,34.48L123.568,36L124.816,36L122.92,30.072L121.52,30.072L119.624,36ZM121.496,33.56L121.672,32.912C121.848,32.296,122.016,31.624,122.176,30.976L122.208,30.976C122.384,31.608,122.544,32.296,122.728,32.912L122.904,33.56L121.496,33.56ZM126.696,32.824L126.696,31.016L127.464,31.016C128.224,31.016,128.64,31.232,128.64,31.872C128.64,32.504000000000005,128.224,32.824,127.464,32.824L126.696,32.824ZM128.736,36L130.05599999999998,36L128.672,33.576C129.352,33.312,129.8,32.760000000000005,129.8,31.872C129.8,30.512,128.816,30.072,127.568,30.072L125.512,30.072L125.512,36L126.696,36L126.696,33.76L127.52,33.76L128.736,36ZM130.96800000000002,36L134.688,36L134.688,35.008L132.152,35.008L132.152,33.424L134.224,33.424L134.224,32.432L132.152,32.432L132.152,31.064L134.6,31.064L134.6,30.072L130.96800000000002,30.072L130.96800000000002,36ZM139.47199999999998,36.112C140.84,36.112,141.648,35.288,141.648,34.32C141.648,33.464,141.176,33,140.45600000000002,32.704L139.68,32.391999999999996C139.176,32.184,138.76,32.032,138.76,31.608C138.76,31.216,139.07999999999998,30.984,139.6,30.984C140.096,30.984,140.488,31.168,140.864,31.472L141.464,30.736C140.98399999999998,30.248,140.296,29.968,139.6,29.968C138.40800000000002,29.968,137.55200000000002,30.72,137.55200000000002,31.68C137.55200000000002,32.544,138.16,33.024,138.76,33.264L139.54399999999998,33.608C140.072,33.832,140.44,33.968,140.44,34.408C140.44,34.824,140.112,35.088,139.49599999999998,35.088C138.976,35.088,138.40800000000002,34.824,137.99200000000002,34.432L137.312,35.248C137.888,35.808,138.68,36.112,139.47199999999998,36.112ZM143.688,36L144.872,36L144.872,31.064L146.54399999999998,31.064L146.54399999999998,30.072L142.024,30.072L142.024,31.064L143.688,31.064L143.688,36ZM149.792,36.112C151.232,36.112,152.072,35.296,152.072,33.336L152.072,30.072L150.936,30.072L150.936,33.44C150.936,34.672,150.48000000000002,35.088,149.792,35.088C149.096,35.088,148.664,34.672,148.664,33.44L148.664,30.072L147.488,30.072L147.488,33.336C147.488,35.296,148.336,36.112,149.792,36.112ZM153.49599999999998,36L155.184,36C156.936,36,158.048,35.008,158.048,33.008C158.048,31.016,156.936,30.072,155.12,30.072L153.49599999999998,30.072L153.49599999999998,36ZM154.68,35.04L154.68,31.024L155.04000000000002,31.024C156.152,31.024,156.84,31.568,156.84,33.008C156.84,34.448,156.152,35.04,155.04000000000002,35.04L154.68,35.04ZM159.208,36L160.392,36L160.392,30.072L159.208,30.072L159.208,36ZM164.2,36.112C165.768,36.112,166.848,34.936,166.848,33.008C166.848,31.088,165.768,29.968,164.2,29.968C162.632,29.968,161.55200000000002,31.088,161.55200000000002,33.008C161.55200000000002,34.936,162.632,36.112,164.2,36.112ZM164.2,35.088C163.32,35.088,162.768,34.272,162.768,33.008C162.768,31.744,163.32,30.984,164.2,30.984C165.07999999999998,30.984,165.64,31.744,165.64,33.008C165.64,34.272,165.07999999999998,35.088,164.2,35.088Z" fill="#FFFFFF" fill-opacity="1"/></g><g clip-path="url(#master_svg0_252_0177)"><g><path d="M29.133298664855957,25.033368701171874L10.099998664855956,25.033368701171874C9.666668664855958,25.033368701171874,9.333328664855957,24.999968701171873,8.999998664855957,24.966668701171876C5.233328664855957,24.366668701171875,2.399998664855957,20.766668701171874,2.399998664855957,16.599968701171875C2.399998664855957,11.866668701171875,5.766668664855957,8.166668701171876,10.099998664855956,8.166668701171876C10.399998664855957,8.166668701171876,10.699998664855958,8.199998701171875,11.066668664855957,8.266668701171875C12.866698664855956,4.933338701171875,16.099998664855956,2.866668701171875,19.566698664855956,2.866668701171875L19.633298664855957,2.866668701171875C23.099998664855956,2.866668701171875,26.366698664855956,4.933338701171875,28.133298664855957,8.266668701171875C28.49999866485596,8.199998701171875,28.833298664855956,8.166668701171876,29.099998664855956,8.166668701171876C29.76669866485596,8.166668701171876,30.466698664855958,8.266668701171875,31.099998664855956,8.433338701171875C31.633298664855957,8.599998701171874,31.933298664855958,9.133338701171876,31.76669866485596,9.666668701171876C31.599998664855956,10.199998701171875,31.066698664855956,10.499998701171876,30.533298664855955,10.333338701171876C30.066698664855956,10.199998701171875,29.566698664855956,10.133338701171876,29.099998664855956,10.133338701171876C28.899998664855957,10.133338701171876,28.633298664855957,10.166668701171876,28.333298664855956,10.199998701171875C27.566698664855956,10.333338701171876,26.76669866485596,9.933338701171875,26.366698664855956,9.199998701171875C24.899998664855957,6.466668701171875,22.399998664855957,4.833338701171875,19.599998664855956,4.833338701171875L19.49999866485596,4.833338701171875C16.73329866485596,4.833338701171875,14.199998664855958,6.466668701171875,12.766698664855957,9.199998701171875C12.366668664855958,9.933338701171875,11.599998664855956,10.333338701171876,10.799998664855957,10.199998701171875C10.499998664855957,10.133338701171876,10.233328664855957,10.133338701171876,10.033328664855958,10.133338701171876C6.833328664855957,10.133338701171876,4.333328664855957,12.966668701171875,4.333328664855957,16.566668701171874C4.333328664855957,19.766668701171874,6.433328664855957,22.499968701171873,9.233328664855957,22.966668701171876C9.466668664855957,22.999968701171873,9.699998664855958,23.033368701171874,10.033328664855958,23.033368701171874L29.099998664855956,23.033368701171874C29.433298664855958,23.033368701171874,29.666698664855957,23.033368701171874,29.899998664855957,22.966668701171876C32.699998664855954,22.533368701171874,34.799998664855956,19.766668701171874,34.799998664855956,16.566668701171874C34.799998664855956,16.299968701171874,34.799998664855956,15.999968701171875,34.76669866485596,15.733368701171875C34.699998664855954,15.199968701171874,35.09999866485596,14.699968701171874,35.63329866485596,14.633368701171875C36.16669866485596,14.566668701171874,36.66669866485596,14.966668701171875,36.73329866485596,15.499968701171875C36.76669866485596,15.866668701171875,36.799998664855956,16.199968701171876,36.799998664855956,16.566668701171874C36.799998664855956,20.733368701171877,33.966698664855954,24.333368701171874,30.23329866485596,24.933368701171876C29.933298664855958,25.033368701171874,29.566698664855956,25.033368701171874,29.133298664855957,25.033368701171874Z" fill="#FFFFFF" fill-opacity="1"/></g><g><path d="M34.600008188476565,13.29998552734375C34.266668188476565,13.29998552734375,33.93333818847656,13.13331552734375,33.766668188476565,12.83332552734375L33.70000818847656,12.73332552734375C33.56666818847656,12.53332552734375,33.40000818847656,12.33332552734375,33.266668188476565,12.13332552734375C33.133338188476564,11.96665552734375,32.966678188476564,11.79998552734375,32.83333818847656,11.66665552734375C32.633338188476564,11.46665552734375,32.43333818847656,11.29998552734375,32.20000818847656,11.13332552734375C32.03334118847656,10.99998552734375,31.833341188476563,10.89998552734375,31.666674188476563,10.79998552734375C31.166675088476563,10.53332552734375,31.000008188476563,9.93332552734375,31.26667518847656,9.43332252734375C31.533341188476562,8.93332242734375,32.133341188476564,8.76665552734375,32.633338188476564,9.03332252734375C32.86667818847656,9.16665552734375,33.133338188476564,9.33332252734375,33.36667818847656,9.49998952734375C33.66667818847656,9.69998852734375,33.966678188476564,9.96665552734375,34.233338188476566,10.19998552734375C34.43333818847656,10.39998552734375,34.633338188476564,10.59998552734375,34.80000818847656,10.83332552734375C35.00000818847656,11.06665552734375,35.20000818847656,11.33332552734375,35.36667818847656,11.59999552734375C35.40000818847656,11.63332552734375,35.43333818847656,11.699985527343749,35.466678188476564,11.73332552734375C35.766668188476565,12.199985527343749,35.633338188476564,12.83332552734375,35.16667818847656,13.09999552734375C34.966678188476564,13.23332552734375,34.80000818847656,13.29999552734375,34.600008188476565,13.29998552734375Z" fill="#FFFFFF" fill-opacity="1"/></g><g><path d="M35.50003587646484,15.29999175354004C35.066635876464844,15.29999175354004,34.666635876464845,14.999991753540039,34.53333587646485,14.56666175354004C34.50003587646484,14.39999175354004,34.433335876464845,14.266661753540038,34.40003587646484,14.099991753540039C34.36663587646484,14.03333175354004,34.333335876464844,13.96666175354004,34.333335876464844,13.89999175354004C34.13333587646484,13.399994753540039,34.36663587646484,12.79999475354004,34.90003587646484,12.599994653540039C35.40003587646484,12.399994753540039,36.00003587646484,12.633327753540039,36.200035876464845,13.16666075354004C36.23333587646484,13.26666075354004,36.266635876464846,13.33332775354004,36.30003587646485,13.433326753540038L36.50003587646484,14.033321753540038C36.666635876464845,14.56666175354004,36.333335876464844,15.13333175354004,35.80003587646485,15.266661753540038C35.700035876464845,15.29999175354004,35.600035876464844,15.29999175354004,35.50003587646484,15.29999175354004ZM21.000035876464842,31.400031753540038C20.533335876464843,31.400031753540038,20.166635876464845,31.03333175354004,20.166635876464845,30.56663175354004C20.166635876464845,30.10003175354004,20.533335876464843,29.73333175354004,21.000035876464842,29.73333175354004L34.63333587646484,29.666631753540038C35.40003587646484,29.666631753540038,36.00003587646484,29.03333175354004,36.00003587646484,28.30003175354004C36.00003587646484,27.93333175354004,35.86663587646484,27.600031753540037,35.600035876464844,27.333331753540037C35.333335876464844,27.066631753540037,35.00003587646484,26.93333175354004,34.63333587646484,26.93333175354004C34.066635876464844,26.93333175354004,33.566635876464844,27.26663175354004,33.36663587646484,27.80003175354004C33.200035876464845,28.23333175354004,32.700035876464845,28.43333175354004,32.266635876464846,28.26663175354004C31.833335876464844,28.100031753540037,31.633335876464844,27.600031753540037,31.800035876464843,27.166631753540038C32.266635876464846,26.03333175354004,33.36663587646484,25.26663175354004,34.600035876464844,25.26663175354004C35.40003587646484,25.26663175354004,36.166635876464845,25.566631753540037,36.766635876464846,26.13333175354004C37.333335876464844,26.70003175354004,37.666635876464845,27.46663175354004,37.666635876464845,28.26663175354004C37.666635876464845,29.93333175354004,36.333335876464844,31.30003175354004,34.63333587646484,31.33333175354004L21.000035876464842,31.400031753540038ZM3.166668876464844,31.50003175354004C2.7333358764648437,31.50003175354004,2.3333358764648438,31.133331753540038,2.3333358764648438,30.666631753540038C2.3333358764648438,30.20003175354004,2.700002876464844,29.83333175354004,3.166668876464844,29.83333175354004L16.800035876464843,29.76663175354004C17.166635876464845,29.76663175354004,17.500035876464842,29.633331753540038,17.766635876464843,29.366631753540037C18.033335876464843,29.10003175354004,18.166635876464845,28.76663175354004,18.166635876464845,28.40003175354004C18.166635876464845,28.03333175354004,18.033335876464843,27.70003175354004,17.766635876464843,27.43333175354004C17.500035876464842,27.166631753540038,17.166635876464845,27.03333175354004,16.800035876464843,27.03333175354004C16.233335876464842,27.03333175354004,15.733335876464844,27.36663175354004,15.533335876464843,27.90003175354004C15.366635876464844,28.333331753540037,14.866635876464844,28.53333175354004,14.433335876464843,28.36663175354004C14.000035876464844,28.20003175354004,13.800035876464843,27.70003175354004,13.966635876464844,27.26663175354004C14.433335876464843,26.13333175354004,15.533335876464843,25.36663175354004,16.766635876464843,25.36663175354004C17.566635876464844,25.36663175354004,18.333335876464844,25.666631753540038,18.933335876464845,26.23333175354004C19.500035876464842,26.80003175354004,19.833335876464844,27.566631753540037,19.833335876464844,28.36663175354004C19.833335876464844,29.166631753540038,19.533335876464843,29.93333175354004,18.966635876464842,30.53333175354004C18.400035876464845,31.10003175354004,17.633335876464844,31.43333175354004,16.833335876464844,31.43333175354004L3.166668876464844,31.50003175354004Z" fill="#FFFFFF" fill-opacity="1"/></g><g><path d="M7.066662772949218,36.966677856445315C6.599995772949219,36.966677856445315,6.233329772949219,36.60001785644531,6.233329772949219,36.13334785644531C6.233329772949219,35.66667785644531,6.599996772949218,35.300017856445315,7.066662772949218,35.300017856445315L28.96662977294922,35.16667785644531C29.73332977294922,35.16667785644531,30.33332977294922,34.53334785644531,30.33332977294922,33.800017856445315C30.33332977294922,33.03334785644531,29.700029772949218,32.433347856445316,28.96662977294922,32.433347856445316C28.400029772949217,32.433347856445316,27.900029772949217,32.76667785644531,27.700029772949218,33.30000785644531C27.53332977294922,33.73334785644531,27.03332977294922,33.93334785644531,26.60002977294922,33.76667785644531C26.166629772949218,33.600007856445316,25.96662977294922,33.100007856445316,26.133329772949217,32.66667785644531C26.60002977294922,31.53334585644531,27.700029772949218,30.766677856445312,28.933329772949218,30.766677856445312L28.96662977294922,30.766677856445312C30.633329772949217,30.766677856445312,32.00002977294922,32.13334785644531,32.00002977294922,33.80000785644531C32.00002977294922,35.466677856445315,30.666629772949218,36.833347856445315,28.96662977294922,36.866677856445314L7.066662772949218,36.966677856445315Z" fill="#FFFFFF" fill-opacity="1"/></g></g></g></svg>